<svg xmlns="http://www.w3.org/2000/svg" width="120" height="100" viewBox="0 0 120 46" fill="none">
  <path d="M24 0.800001H28.2L32.7 2L36 3.8L39 6.5L41.1 9.5L42.3 11.9L43.2 14.9V20L42.3 23.6L40.8 27.2L38.1 31.7L34.8 35.9L32.4 38.9L29.1 42.8L27.3 44.9L25.5 45.2L21.9 41.6L18.6 37.4L16.2 34.4L13.5 30.5L10.8 26L9 21.2V20.3L14.1 20L13.8 18.5L5.1 18.2L4.8 16.7L5.4 16.1L14.7 15.8L15 13.7L0.3 13.4L0 13.1V11.6L0.6 11L16.5 10.7L17.4 9.2H7.8L7.2 8.6L7.5 7.4L9.3 6.8L16.8 6.2L22.8 5.3L14.1 5L15.3 3.8L18.9 2L21.6 1.1L24 0.800001Z" fill="#6A1B9A"/>
  <path d="M22.8 8.3H29.4L32.1 9.2L33.6 10.4L35.1 13.7L36.3 18.2L36.6 23.3L37.2 24.5V27.5L35.7 29.3L34.8 29.6H32.7L30.9 28.4L30.6 27.5L24.6 27.8L23.1 29.3L22.2 29.9H19.2L17.4 28.7L16.5 27.2L16.2 24.2L17.1 14.9L18.6 11.3L19.8 9.8L22.8 8.3Z" fill="#6A1B9A"/>
  <path d="M56.7 16.7C58.5247 16.2707 59.6883 16.2189 61.5 16.7C62.6152 16.9962 63.2275 17.279 64.2 17.9C65.1104 18.4813 65.68 18.8155 66.3 19.7C66.8121 20.4306 67.2 21.8 67.2 21.8V23.6H62.7L62.7 21.8C62.7 21.8 61.4667 21.1119 60.6 20.9C59.3481 20.594 58.4715 20.363 57.3 20.9C56.6181 21.2126 56.1785 21.4523 55.8 22.1C55.268 23.0104 55.0708 24.0384 55.8 24.8C56.2363 25.2557 56.7103 25.1758 57.3 25.4C60.0377 26.4411 61.9587 26.0438 64.5 27.5C65.233 27.92 65.6943 28.1111 66.3 28.7C67.0924 29.4705 67.4472 30.0526 67.8 31.1C68.2861 32.5434 68.2861 33.5566 67.8 35C67.4472 36.0475 67.039 36.5782 66.3 37.4C65.6882 38.0804 65.2911 38.4402 64.5 38.9C63.5391 39.4585 62.8868 39.5671 61.8 39.8C59.738 40.2419 58.4491 40.2984 56.4 39.8C55.1739 39.5018 54.4752 39.2604 53.4 38.6C52.3388 37.9482 51.6938 37.5342 51 36.5C50.5029 35.759 50.1 34.4 50.1 34.4V32.6H54.9L54.9 34.4C54.9 34.4 56.2916 35.315 57.3 35.6C58.7656 36.0142 59.783 36.1582 61.2 35.6C61.8356 35.3496 62.3122 35.2624 62.7 34.7C63.2321 33.9284 63.165 33.1138 62.7 32.3C62.4534 31.8684 62.1778 31.723 61.8 31.4C59.6833 29.5904 57.3289 30.9622 54.9 29.6C54.1631 29.1867 53.7417 28.9496 53.1 28.4C52.2796 27.6974 51.7401 27.2864 51.3 26.3C51.1491 25.9617 51.0963 25.7577 51 25.4C50.5736 23.8162 50.4606 22.749 51 21.2C51.3635 20.1562 51.7185 19.5815 52.5 18.8C53.2815 18.0185 53.8893 17.7474 54.9 17.3C55.5776 17.0001 55.9787 16.8697 56.7 16.7Z" fill="#6A1B9A"/>
  <path d="M111.9 22.7C113.17 22.4783 113.935 22.4537 115.2 22.7C116.439 22.9411 117.239 23.0821 118.2 23.9C118.771 24.3863 119.042 24.7406 119.4 25.4C119.753 26.0513 120 27.2 120 27.2V39.5H116.1V38.1535C116.1 38.1535 114.532 39.1198 113.7 39.5C113.363 39.6539 112.8 39.8 112.8 39.8C112.8 39.8 110.117 40.4245 108.6 39.8C107.819 39.4783 107.439 39.1522 106.8 38.6C106.424 38.2751 106.147 38.1316 105.9 37.7C105.716 37.3783 105.69 37.1594 105.6 36.8C105.316 35.6634 105.206 34.9033 105.6 33.8C105.884 33.0044 106.223 32.6174 106.8 32C107.312 31.4517 107.652 31.1787 108.3 30.8C109.551 30.0685 111.9 29.9 111.9 29.9L115.8 29.6C115.8 29.6 115.956 27.6718 115.2 26.9C114.904 26.5982 114.691 26.4608 114.3 26.3C113.542 25.9877 112.958 25.9877 112.2 26.3C111.434 26.6154 111.126 27.0896 110.7 27.8C110.565 28.0246 110.4 28.4 110.4 28.4H106.274C106.274 28.4 106.315 27.2782 106.5 26.6C106.722 25.7849 107.123 25.4174 107.7 24.8C108.212 24.2517 108.554 23.9811 109.2 23.6C110.157 23.0354 110.805 22.8912 111.9 22.7Z" fill="#6A1B9A"/>
  <path d="M89.1 17H93.3L93.6 29.3L97.2 25.4L99 23.3H104.4L102.6 25.7L101.1 27.2L99 29.3L99.3 30.5L104.1 38.3L104.7 39.5H99.6L95.7 33.2V32.6L93.6 34.4L93.3 39.5H89.1V17Z" fill="#6A1B9A"/>
  <path d="M22.8 8.3H29.4L32.1 9.2L33.6 10.4L35.1 13.7L36.3 18.2L36.6 23.3L37.2 24.5V27.5L35.7 29.3L34.8 29.6H32.7L30.9 28.4L30.6 27.5L24.6 27.8L23.1 29.3L22.2 29.9H19.2L17.4 28.7L16.5 27.2L16.2 24.2L17.1 14.9L18.6 11.3L19.8 9.8L22.8 8.3ZM24 10.4L21.3 12.2L20.1 14L19.2 18.2V20.6H21.3L23.7 21.8L24.9 23.9L25.2 25.7H31.2L31.8 25.4L32.1 27.5L33 28.1H34.8L35.7 27.2V24.5L34.2 23.3L34.5 22.1V18.2L33 13.1L31.8 11.3L30.6 10.4H24Z" fill="white"/>
  <path d="M71.4 18.8H75.6V23H79.5V26.6H75.6L75.9 35.6L79.5 35.9V39.8H79.2H74.7C74.7 39.8 73.5086 39.3972 72.9 38.9C72.319 38.4254 72.0181 38.0794 71.7 37.4C71.5429 37.0645 71.4 36.5 71.4 36.5V26.6H68.7V23.3H71.4V18.8Z" fill="#6A1B9A"/>
  <path d="M81.9 23H86.1L86.4 23.3V39.5H81.9V23Z" fill="#6A1B9A"/>
  <path d="M27.3 14.3H30.3L31.8 15.2L32.7 17.6V20L30.9 20.6H26.7V14.9L27.3 14.3Z" fill="white"/>
  <path d="M19.8 21.8L22.2 22.1L23.7 23.9V26.3L22.8 27.8L21.6 28.4H19.5L18 26.9L17.7 26V23.9L19.2 22.1L19.8 21.8Z" fill="#6A1B9A"/>
  <path d="M114.9 32H115.8C115.8 32 116.034 33.314 115.8 34.1C115.559 34.9097 115.239 35.347 114.6 35.9C114.006 36.4144 113.575 36.6677 112.8 36.8C111.983 36.9394 111.408 36.9307 110.7 36.5C110.275 36.2416 110.006 36.0525 109.8 35.6C109.558 35.0667 109.59 34.6467 109.8 34.1C110.038 33.4814 110.461 33.2859 111 32.9C112.271 31.9898 114.9 32 114.9 32Z" fill="white"/>
  <rect x="81.8848" y="17.0598" width="4.54102" height="4.54102" fill="#6A1B9A"/>
</svg>