<svg width="309" height="258" viewBox="0 0 309 258" fill="none" xmlns="http://www.w3.org/2000/svg">
<path d="M135.852 135.222C141.485 133.591 145.806 134.401 151.029 136.778C156.091 139.083 158.524 141.667 160.518 146.126C162.559 150.692 162.346 153.954 160.518 158.581C159.185 161.953 158.108 164.061 154.829 166.368C152.313 168.137 150.418 168.724 147.237 169.485C142.257 170.677 138.747 171.107 133.95 169.485C129.105 167.849 126.805 165.544 124.461 161.699C123.426 160 122.585 157.094 122.565 157.025C122.565 157.025 120.899 150.157 122.565 146.126C124.427 141.629 127.133 139.278 132.054 136.778C133.462 136.063 134.29 135.675 135.852 135.222Z" fill="#6A1B9A"/>
<path fill-rule="evenodd" clip-rule="evenodd" d="M161.424 73.1216C176.461 67.9508 189.098 66.374 203.176 73.1216C206.374 74.655 208.14 75.6477 210.768 77.7905C214.557 80.8801 215.788 83.2893 218.353 87.133C224.661 96.5845 226.258 102.912 227.842 113.611C229.004 121.457 229.625 126.085 227.842 133.852C227.28 136.298 225.965 140.027 225.946 140.082C226.045 140.123 233.056 142.975 235.434 146.312C238.798 151.037 238.865 155.636 235.434 160.329C233.818 162.538 232.553 163.845 229.745 164.998C225.797 166.617 218.463 165.022 218.353 164.998C218.223 164.95 214.37 163.524 212.664 161.886C209.305 158.655 210.732 151.173 210.768 150.986L206.969 152.542H169.016C169.016 152.542 168.524 146.715 167.119 143.2C165.256 138.542 163.802 135.72 159.528 132.296C154.785 128.498 150.84 127.163 144.35 126.066C139.328 125.217 130.018 127.062 129.802 127.105C129.816 126.961 130.619 118.422 131.063 113.611C131.863 104.928 132.025 99.5991 136.758 91.8074C139.142 87.8831 140.726 85.6865 144.35 82.4649C149.786 77.6324 154.034 75.6635 161.424 73.1216ZM201.28 93.3637C194.342 91.3308 182.445 93.3392 182.303 93.3637L178.51 96.481V126.066C178.771 126.096 195.034 127.925 205.073 126.066C209.607 125.225 216.352 122.99 216.464 122.953C216.469 122.917 217.484 115.273 216.464 110.492C215.372 105.376 215.13 101.802 210.768 98.0373C207.79 95.4685 205.348 94.5564 201.28 93.3637Z" fill="#6A1B9A
"/>
<path fill-rule="evenodd" clip-rule="evenodd" d="M217.454 33.5751L238.326 42.9184L257.303 56.9345L270.585 72.5077L278.176 84.9628L283.871 100.536V127.013L278.176 145.699L268.688 164.389L251.608 187.748L230.735 209.546L215.558 225.119L194.678 245.366L183.293 256.265L171.909 257.826L149.139 239.135L128.26 217.333L113.082 201.76L96.002 181.518L78.9226 158.158L67.5373 133.243V128.569L99.7948 127.013L97.8984 119.227L42.8655 117.67L40.969 109.883L44.7677 106.766L103.594 105.21L105.491 94.3108L12.5043 92.749L10.6079 91.1927V83.4065L14.4008 80.2939L114.979 78.7376L120.675 70.9514H59.9458L56.153 67.8333L58.0494 61.6034L69.4337 58.4908L116.875 55.3782L154.829 50.7046L99.7948 49.1483L107.387 42.9184L130.163 33.5751L147.236 28.9015L162.42 27.3452H188.989L217.454 33.5751ZM196.574 66.2778C196.367 66.2454 170.301 62.231 154.829 66.2778C146.937 68.3423 141.973 69.4837 135.852 74.064C132.347 76.6874 130.87 78.6001 128.26 81.8502C122.975 88.4334 118.796 100.471 118.772 100.541C118.684 100.915 111.886 130.023 113.077 148.816C113.463 154.918 112.215 158.712 114.973 164.389C116.573 167.682 117.762 169.552 120.668 172.175C124.262 175.419 127.022 176.931 132.053 178.405C139.03 180.45 144.312 180.968 151.029 178.405C153.451 177.481 154.606 176.622 156.725 175.288C160.845 172.693 166.12 167.592 166.213 167.502L204.167 165.945C204.187 166.028 204.917 168.973 206.063 170.619C208.714 174.424 212.328 175.593 217.447 176.844C222.418 178.059 225.676 177.782 230.735 176.844C233.018 176.421 234.347 176.173 236.424 175.288C241.508 173.121 245.824 166.09 245.912 165.945C245.926 165.892 248.249 156.126 245.912 150.372C244.876 147.819 242.177 144.218 242.119 144.142C242.121 144.011 242.279 127.846 240.223 117.67C238.341 108.357 236.619 103.165 232.631 94.3108C229.528 87.4186 229.143 82.6335 223.143 77.1813C219.962 74.2924 217.74 72.929 213.655 70.9514C207.637 68.0388 196.711 66.2992 196.574 66.2778Z" fill="#6A1B9A"/>
</svg>
