<svg width="1200" height="1200" viewBox="0 0 1200 1200" fill="none" xmlns="http://www.w3.org/2000/svg">
<rect width="1200" height="1200" fill="white" rx="100"/>
<path d="M578.328 558.821C590.311 556.002 597.953 555.661 609.852 558.821C617.176 560.766 621.197 562.624 627.585 566.702C633.564 570.52 637.305 572.715 641.377 578.524C644.74 583.322 647.287 592.316 647.287 592.316V604.137H617.733L617.733 592.316C617.733 592.316 609.634 587.796 603.941 586.405C595.719 584.395 589.962 582.878 582.268 586.405C577.789 588.458 574.903 590.032 572.417 594.286C568.923 600.265 567.628 607.016 572.417 612.018C575.282 615.011 578.395 614.486 582.268 615.959C600.248 622.796 612.865 620.187 629.555 629.751C634.369 632.509 637.398 633.764 641.377 637.632C646.581 642.692 648.911 646.515 651.228 653.394C654.421 662.873 654.421 669.528 651.228 679.007C648.911 685.887 646.23 689.372 641.377 694.769C637.358 699.238 634.75 701.601 629.555 704.621C623.244 708.289 618.96 709.002 611.822 710.532C598.28 713.434 589.815 713.805 576.357 710.532C568.305 708.573 563.716 706.988 556.655 702.651C549.685 698.37 545.449 695.651 540.892 688.859C537.628 683.992 534.981 675.067 534.981 675.067V663.245H566.506L566.506 675.067C566.506 675.067 575.645 681.076 582.268 682.948C591.894 685.668 598.575 686.614 607.882 682.948C612.056 681.303 615.186 680.73 617.733 677.037C621.228 671.97 620.787 666.619 617.733 661.275C616.114 658.441 614.304 657.485 611.822 655.364C597.921 643.48 582.458 652.489 566.506 643.543C561.667 640.829 558.898 639.271 554.684 635.662C549.296 631.047 545.753 628.348 542.863 621.87C541.871 619.648 541.525 618.308 540.892 615.959C538.092 605.557 537.349 598.548 540.892 588.375C543.28 581.52 545.611 577.746 550.744 572.613C555.876 567.48 559.868 565.7 566.506 562.762C570.956 560.792 573.591 559.936 578.328 558.821Z" fill="#4a1184"/>
<path d="M791.117 560.794H818.701L820.671 641.575L844.315 615.962L856.136 602.17H891.601L879.78 617.932L869.928 627.783L856.136 641.575L858.107 649.456L889.631 700.683L893.572 708.564H860.077L834.463 667.189V663.248L820.671 675.07L818.701 708.564H791.117V560.794Z" fill="#4a1184"/>
<path d="M674.872 572.615H702.456V600.198H728.07V623.842H702.456L704.426 682.95L728.07 684.92V710.533H726.099H696.545C696.545 710.533 688.721 707.888 684.724 704.622C680.908 701.506 678.932 699.233 676.842 694.771C675.811 692.568 674.872 688.86 674.872 688.86V623.842H657.14V602.169H674.872V572.615Z" fill="#4a1184"/>
<path d="M743.829 600.2H771.413L773.383 602.17V708.564H743.829V600.2Z" fill="#4a1184"/>
<path d="M335.981 592.317C341.829 590.254 346.316 591.278 351.739 594.286C356.994 597.202 359.52 600.471 361.591 606.113C363.71 611.89 363.489 616.017 361.591 621.871C360.207 626.137 359.088 628.804 355.684 631.723C353.072 633.961 351.104 634.704 347.801 635.667C342.631 637.175 338.986 637.718 334.006 635.667C328.976 633.596 326.587 630.68 324.154 625.816C323.079 623.666 322.206 619.99 322.185 619.902C322.185 619.902 320.455 611.213 322.185 606.113C324.119 600.424 326.928 597.449 332.037 594.286C333.499 593.381 334.359 592.89 335.981 592.317Z" fill="#4a1184"/>
<path fill-rule="evenodd" clip-rule="evenodd" d="M363.56 517.451C379.172 510.909 392.293 508.914 406.91 517.451C410.23 519.391 412.064 520.647 414.792 523.358C418.726 527.267 420.004 530.315 422.668 535.178C429.217 547.136 430.875 555.142 432.52 568.677C433.726 578.604 434.371 584.459 432.52 594.286C431.936 597.381 430.571 602.099 430.551 602.169C430.654 602.22 437.933 605.828 440.402 610.051C443.895 616.029 443.964 621.847 440.402 627.785C438.724 630.58 437.411 632.233 434.495 633.692C430.396 635.74 422.782 633.722 422.668 633.692C422.532 633.631 418.532 631.827 416.761 629.754C413.273 625.667 414.755 616.2 414.792 615.964L410.848 617.933H371.442C371.442 617.933 370.932 610.56 369.473 606.113C367.539 600.22 366.029 596.65 361.591 592.317C356.667 587.512 352.571 585.823 345.832 584.435C340.618 583.362 330.952 585.696 330.728 585.75C330.742 585.568 331.576 574.764 332.037 568.677C332.868 557.692 333.036 550.95 337.95 541.092C340.425 536.127 342.07 533.348 345.832 529.272C351.476 523.158 355.887 520.667 363.56 517.451ZM404.941 543.061C397.738 540.489 385.385 543.03 385.238 543.061L381.3 547.005V584.435C381.571 584.473 398.456 586.787 408.879 584.435C413.587 583.372 420.59 580.544 420.706 580.497C420.711 580.451 421.765 570.781 420.706 564.732C419.572 558.259 419.321 553.737 414.792 548.974C411.7 545.724 409.165 544.57 404.941 543.061Z" fill="#4a1184"/>
<path fill-rule="evenodd" clip-rule="evenodd" d="M420.706 462.281L442.377 474.102L462.08 491.835L475.87 511.538L483.752 527.296L489.665 546.999V580.497L483.752 604.138L473.901 627.785L456.167 657.339L434.495 684.917L418.737 704.62L397.058 730.236L385.238 744.025L373.418 746L349.777 722.353L328.099 694.769L312.34 675.066L294.606 649.456L276.873 619.902L265.052 588.379V582.466L298.544 580.497L296.575 570.646L239.436 568.677L237.467 558.825L241.411 554.881L302.489 552.912L304.458 539.123L207.913 537.147L205.944 535.178V525.327L209.882 521.389L314.309 519.42L320.223 509.569H257.17L253.232 505.624L255.201 497.742L267.021 493.804L316.278 489.866L355.684 483.953L298.544 481.984L306.427 474.102L330.074 462.281L347.801 456.368L363.566 454.399H391.151L420.706 462.281ZM399.027 503.656C398.812 503.615 371.748 498.536 355.684 503.656C347.49 506.268 342.336 507.712 335.981 513.507C332.342 516.826 330.808 519.246 328.099 523.358C322.611 531.687 318.272 546.917 318.247 547.005C318.156 547.479 311.098 584.305 312.334 608.082C312.735 615.802 311.439 620.603 314.303 627.785C315.964 631.951 317.199 634.317 320.216 637.636C323.948 641.74 326.813 643.653 332.037 645.518C339.281 648.105 344.765 648.761 351.739 645.518C354.254 644.349 355.453 643.262 357.653 641.574C361.93 638.291 367.407 631.837 367.504 631.723L406.91 629.754C406.931 629.859 407.689 633.585 408.879 635.667C411.631 640.481 415.384 641.96 420.699 643.543C425.86 645.08 429.242 644.729 434.495 643.543C436.865 643.008 438.245 642.694 440.402 641.574C445.68 638.832 450.162 629.937 450.253 629.754C450.267 629.686 452.679 617.331 450.253 610.051C449.177 606.821 446.375 602.265 446.315 602.169C446.317 602.003 446.481 581.551 444.346 568.677C442.392 556.894 440.604 550.325 436.464 539.123C433.242 530.403 432.842 524.349 426.613 517.451C423.31 513.796 421.003 512.071 416.761 509.569C410.513 505.884 399.169 503.683 399.027 503.656Z" fill="#4a1184"/>
<path fill-rule="evenodd" clip-rule="evenodd" d="M940.861 598.233C949.199 596.777 954.225 596.615 962.533 598.233C970.667 599.816 975.926 600.738 982.236 606.109C985.987 609.302 987.769 611.631 990.118 615.96C992.439 620.237 994.056 627.787 994.056 627.787V708.566H968.447V699.722C968.447 699.722 958.148 706.069 952.682 708.566C950.505 709.561 946.892 710.505 946.775 710.535C946.775 710.535 929.151 714.636 919.19 710.535C914.059 708.423 911.568 706.279 907.369 702.653C904.899 700.52 903.075 699.579 901.456 696.746C900.249 694.634 900.077 693.193 899.487 690.833C897.621 683.368 896.899 678.376 899.487 671.13C901.353 665.905 903.582 663.365 907.369 659.31C910.731 655.71 912.968 653.914 917.221 651.427C925.437 646.624 940.861 645.514 940.861 645.514L966.478 643.545C966.491 643.381 967.464 630.847 962.533 625.811C960.594 623.831 959.189 622.929 956.626 621.873C951.646 619.823 947.811 619.823 942.83 621.873C937.8 623.945 935.778 627.06 932.979 631.725C932.11 633.173 931.048 635.576 931.01 635.663H903.912C903.918 635.506 904.192 628.248 905.394 623.842C906.854 618.49 909.489 616.077 913.276 612.022C916.639 608.421 918.884 606.642 923.128 604.14C929.415 600.432 933.671 599.488 940.861 598.233ZM960.564 659.31C960.564 659.31 943.294 659.24 934.948 665.217C931.41 667.751 928.628 669.037 927.066 673.099C925.685 676.689 925.474 679.449 927.066 682.95C928.416 685.922 930.19 687.166 932.979 688.864C937.625 691.691 941.406 691.748 946.768 690.833C951.856 689.964 954.687 688.298 958.589 684.919C962.783 681.287 964.887 678.417 966.471 673.099C967.999 667.97 966.49 659.418 966.471 659.31H960.564Z" fill="#4a1184"/>
<rect x="743.73" y="561.186" width="29.8236" height="29.8233" fill="#4a1184"/>
</svg>
